# xmcd
#
# Track frame offsets: 
#        150
#        26722
#        51017
#        78648
#        85658
#        93711
#        100299
#        103391
#        108426
#        128891
#        149751
#        190930
#        201128
#        237165
#
# Disc length: 3442 seconds
#
# Revision: 5
# Processed by: cddbd v1.5.2PL0 Copyright (c) Steve Scherf et al.
# Submitted via: ExactAudioCopy v1.0b3
#
DISCID=c90d700e
DTITLE=Frédéric Chopin - Collection Historique - Serguei Rachmaninov -
DTITLE=Alexander Brailowsky
DYEAR=1930
DGENRE=Romantique
TTITLE0=Sonate pour piano en si b m op. 35 n° 2 « Marche Funèbre »  – 
TTITLE0=Grave - Doppio Movimento (S. R. 1929)
TTITLE1=Sonate pour piano en si bémol mineur op. 35 n° 2 « Marche Funè
TTITLE1=bre »  – Scherzo (Rachmaninov 1929)
TTITLE2=Sonate pour piano en si bémol mineur op. 35 n° 2 « Marche Funè
TTITLE2=bre »  – Marche Funèbre (S. R. 1929)
TTITLE3=Sonate pour piano en si bémol mineur op. 35 n° 2 « Marche Funè
TTITLE3=bre »  – Presto (Rachmaninov 1929)
TTITLE4=Valse en mi mineur op. posthume (Serguei Rachmaninov 1929)
TTITLE5=Écossaise en ré majeur op. 72 n° 3 (Alexander Brailowsky 1928)
TTITLE6=Écossaise en sol majeur op. 72 n° 3 (Alexander Brailowsky 1928
TTITLE6=)
TTITLE7=Écossaise en ré bémol majeur op. 72 n° 3 (Alexander Brailowsky
TTITLE7=1928)
TTITLE8=Berceuse en ré bémol majeur op. 57 (Alexander Brailowsky 1928)
TTITLE9=Grande Valse brillante en mi bémol majeur op. 18 (Alexander Br
TTITLE9=ailowsky 1928)
TTITLE10=Sonate pour piano en si mineur op. 58 n° 3 - Allegro Maestoso
TTITLE10=(Alexander Brailowsky 1928)
TTITLE11=Sonate pour piano en si mineur op. 58 n° 3 - Scherzo - molto 
TTITLE11=vivace (Alexander Brailowsky 1928)
TTITLE12=Sonate pour piano en si mineur op. 58 n° 3 - Largo (Alexander
TTITLE12=Brailowsky 1928)
TTITLE13=Sonate pour piano en si mineur op. 58 n° 3 - Finale - presto 
TTITLE13=non tanto (Alexander Brailowsky 1928)
EXTD=
EXTT0=
EXTT1=
EXTT2=
EXTT3=
EXTT4=
EXTT5=
EXTT6=
EXTT7=
EXTT8=
EXTT9=
EXTT10=
EXTT11=
EXTT12=
EXTT13=
PLAYORDER=
